<svg data-v-423bf9ae="" xmlns="http://www.w3.org/2000/svg" viewBox="0 0 511.51901700834253 163" class="iconAbove"><!----><!----><!----><g data-v-423bf9ae="" id="e1b6b59f-8aaf-4c2d-918a-eef9d9090cec" fill="white" transform="matrix(5.424955053999871,0,0,5.424955053999871,-0.8137432742417445,95.73055706633052)"><path d="M0.15 1.36L7.14 1.36L7.14 2.60L4.33 2.60L4.33 10.50L2.93 10.50L2.93 2.60L0.15 2.60L0.15 1.36ZM10.67 10.67L10.67 10.67L10.67 10.67Q9.46 10.67 8.71 10.31L8.71 10.31L8.71 10.31Q7.97 9.95 7.55 9.39L7.55 9.39L7.55 9.39Q7.13 8.83 6.97 8.14L6.97 8.14L6.97 8.14Q6.82 7.45 6.82 6.78L6.82 6.78L6.82 6.78Q6.82 6.10 7.04 5.46L7.04 5.46L7.04 5.46Q7.25 4.82 7.67 4.31L7.67 4.31L7.67 4.31Q8.08 3.81 8.68 3.50L8.68 3.50L8.68 3.50Q9.28 3.19 10.07 3.19L10.07 3.19L10.07 3.19Q11.00 3.19 11.63 3.52L11.63 3.52L11.63 3.52Q12.26 3.85 12.64 4.38L12.64 4.38L12.64 4.38Q13.02 4.90 13.17 5.54L13.17 5.54L13.17 5.54Q13.33 6.17 13.33 6.78L13.33 6.78L13.33 7.22L8.22 7.22L8.22 7.22Q8.27 7.90 8.53 8.41L8.53 8.41L8.53 8.41Q8.64 8.64 8.81 8.86L8.81 8.86L8.81 8.86Q8.97 9.07 9.22 9.24L9.22 9.24L9.22 9.24Q9.46 9.41 9.79 9.51L9.79 9.51L9.79 9.51Q10.11 9.60 10.53 9.60L10.53 9.60L10.53 9.60Q10.98 9.60 11.38 9.50L11.38 9.50L11.38 9.50Q11.77 9.39 12.08 9.27L12.08 9.27L12.08 9.27Q12.45 9.11 12.75 8.92L12.75 8.92L12.77 10.12L12.77 10.12Q12.77 10.12 12.61 10.21L12.61 10.21L12.61 10.21Q12.45 10.30 12.17 10.40L12.17 10.40L12.17 10.40Q11.89 10.50 11.50 10.58L11.50 10.58L11.50 10.58Q11.12 10.67 10.67 10.67ZM8.22 6.24L11.93 6.24L11.93 6.24Q11.93 5.89 11.82 5.54L11.82 5.54L11.82 5.54Q11.72 5.18 11.49 4.89L11.49 4.89L11.49 4.89Q11.27 4.61 10.92 4.43L10.92 4.43L10.92 4.43Q10.57 4.26 10.07 4.26L10.07 4.26L10.07 4.26Q9.63 4.26 9.29 4.43L9.29 4.43L9.29 4.43Q8.95 4.61 8.71 4.89L8.71 4.89L8.71 4.89Q8.47 5.18 8.34 5.54L8.34 5.54L8.34 5.54Q8.22 5.89 8.22 6.24L8.22 6.24ZM19.08 3.30L19.08 4.47L19.08 4.47Q18.98 4.44 18.87 4.41L18.87 4.41L18.87 4.41Q18.77 4.38 18.66 4.36L18.66 4.36L18.66 4.36Q18.54 4.34 18.42 4.34L18.42 4.34L18.42 4.34Q17.82 4.34 17.43 4.61L17.43 4.61L17.43 4.61Q17.04 4.89 16.81 5.31L16.81 5.31L16.81 5.31Q16.59 5.73 16.50 6.24L16.50 6.24L16.50 6.24Q16.41 6.76 16.41 7.25L16.41 7.25L16.41 10.50L15.09 10.50L15.09 3.36L16.21 3.36L16.37 4.47L16.37 4.47Q16.56 4.12 16.80 3.84L16.80 3.84L16.80 3.84Q17.04 3.57 17.36 3.40L17.36 3.40L17.36 3.40Q17.68 3.23 18.10 3.20L18.10 3.20L18.10 3.20Q18.52 3.16 19.08 3.30L19.08 3.30ZM24.29 10.67L24.29 10.67L24.29 10.67Q23.59 10.67 22.94 10.41L22.94 10.41L22.94 10.41Q22.29 10.15 21.85 9.58L21.85 9.58L21.85 12.40L20.54 12.40L20.54 3.36L21.64 3.36L21.85 4.37L21.85 4.38L21.85 4.38Q22.05 4.05 22.39 3.79L22.39 3.79L22.39 3.79Q22.67 3.57 23.13 3.38L23.13 3.38L23.13 3.38Q23.60 3.19 24.29 3.19L24.29 3.19L24.29 3.19Q25.00 3.19 25.57 3.49L25.57 3.49L25.57 3.49Q26.14 3.79 26.53 4.30L26.53 4.30L26.53 4.30Q26.92 4.80 27.13 5.48L27.13 5.48L27.13 5.48Q27.33 6.16 27.33 6.92L27.33 6.92L27.33 6.92Q27.33 7.67 27.13 8.35L27.13 8.35L27.13 8.35Q26.92 9.03 26.53 9.55L26.53 9.55L26.53 9.55Q26.14 10.07 25.57 10.37L25.57 10.37L25.57 10.37Q25.00 10.67 24.29 10.67ZM24.00 4.26L24.00 4.26L24.00 4.26Q23.58 4.26 23.19 4.42L23.19 4.42L23.19 4.42Q22.81 4.58 22.51 4.91L22.51 4.91L22.51 4.91Q22.22 5.24 22.04 5.74L22.04 5.74L22.04 5.74Q21.85 6.24 21.85 6.92L21.85 6.92L21.85 6.92Q21.85 7.59 22.04 8.09L22.04 8.09L22.04 8.09Q22.22 8.60 22.51 8.93L22.51 8.93L22.51 8.93Q22.81 9.27 23.19 9.44L23.19 9.44L23.19 9.44Q23.58 9.60 24.00 9.60L24.00 9.60L24.00 9.60Q24.39 9.60 24.74 9.44L24.74 9.44L24.74 9.44Q25.09 9.27 25.35 8.93L25.35 8.93L25.35 8.93Q25.62 8.60 25.77 8.09L25.77 8.09L25.77 8.09Q25.93 7.59 25.93 6.92L25.93 6.92L25.93 6.92Q25.93 6.24 25.77 5.74L25.77 5.74L25.77 5.74Q25.62 5.24 25.35 4.91L25.35 4.91L25.35 4.91Q25.09 4.58 24.74 4.42L24.74 4.42L24.74 4.42Q24.39 4.26 24.00 4.26ZM32.47 10.67L32.47 10.67L32.47 10.67Q31.26 10.67 30.51 10.31L30.51 10.31L30.51 10.31Q29.76 9.95 29.34 9.39L29.34 9.39L29.34 9.39Q28.92 8.83 28.77 8.14L28.77 8.14L28.77 8.14Q28.62 7.45 28.62 6.78L28.62 6.78L28.62 6.78Q28.62 6.10 28.83 5.46L28.83 5.46L28.83 5.46Q29.05 4.82 29.46 4.31L29.46 4.31L29.46 4.31Q29.88 3.81 30.48 3.50L30.48 3.50L30.48 3.50Q31.08 3.19 31.86 3.19L31.86 3.19L31.86 3.19Q32.80 3.19 33.43 3.52L33.43 3.52L33.43 3.52Q34.06 3.85 34.44 4.38L34.44 4.38L34.44 4.38Q34.82 4.90 34.97 5.54L34.97 5.54L34.97 5.54Q35.13 6.17 35.13 6.78L35.13 6.78L35.13 7.22L30.02 7.22L30.02 7.22Q30.07 7.90 30.32 8.41L30.32 8.41L30.32 8.41Q30.44 8.64 30.60 8.86L30.60 8.86L30.60 8.86Q30.77 9.07 31.02 9.24L31.02 9.24L31.02 9.24Q31.26 9.41 31.58 9.51L31.58 9.51L31.58 9.51Q31.91 9.60 32.33 9.60L32.33 9.60L32.33 9.60Q32.77 9.60 33.17 9.50L33.17 9.50L33.17 9.50Q33.57 9.39 33.88 9.27L33.88 9.27L33.88 9.27Q34.24 9.11 34.55 8.92L34.55 8.92L34.57 10.12L34.57 10.12Q34.57 10.12 34.41 10.21L34.41 10.21L34.41 10.21Q34.24 10.30 33.96 10.40L33.96 10.40L33.96 10.40Q33.68 10.50 33.30 10.58L33.30 10.58L33.30 10.58Q32.91 10.67 32.47 10.67ZM30.02 6.24L33.73 6.24L33.73 6.24Q33.73 5.89 33.62 5.54L33.62 5.54L33.62 5.54Q33.52 5.18 33.29 4.89L33.29 4.89L33.29 4.89Q33.07 4.61 32.72 4.43L32.72 4.43L32.72 4.43Q32.37 4.26 31.86 4.26L31.86 4.26L31.86 4.26Q31.43 4.26 31.09 4.43L31.09 4.43L31.09 4.43Q30.74 4.61 30.51 4.89L30.51 4.89L30.51 4.89Q30.27 5.18 30.14 5.54L30.14 5.54L30.14 5.54Q30.02 5.89 30.02 6.24L30.02 6.24ZM40.53 3.19L40.53 3.19L40.53 3.19Q41.93 3.19 42.57 4.02L42.57 4.02L42.57 4.02Q43.22 4.84 43.22 6.37L43.22 6.37L43.22 10.50L41.89 10.50L41.89 6.73L41.89 6.73Q41.89 5.46 41.57 4.86L41.57 4.86L41.57 4.86Q41.24 4.26 40.43 4.26L40.43 4.26L40.43 4.26Q39.87 4.26 39.46 4.47L39.46 4.47L39.46 4.47Q39.05 4.68 38.77 5.06L38.77 5.06L38.77 5.06Q38.49 5.45 38.35 5.99L38.35 5.99L38.35 5.99Q38.21 6.52 38.21 7.18L38.21 7.18L38.21 10.50L36.89 10.50L36.89 3.36L38.00 3.36L38.21 4.49L38.21 4.49Q38.54 3.92 39.19 3.56L39.19 3.56L39.19 3.56Q39.83 3.19 40.53 3.19ZM48.83 10.67L48.83 10.67L48.83 10.67Q47.63 10.67 46.88 10.31L46.88 10.31L46.88 10.31Q46.13 9.95 45.71 9.39L45.71 9.39L45.71 9.39Q45.29 8.83 45.14 8.14L45.14 8.14L45.14 8.14Q44.98 7.45 44.98 6.78L44.98 6.78L44.98 6.78Q44.98 6.10 45.20 5.46L45.20 5.46L45.20 5.46Q45.42 4.82 45.83 4.31L45.83 4.31L45.83 4.31Q46.24 3.81 46.84 3.50L46.84 3.50L46.84 3.50Q47.45 3.19 48.23 3.19L48.23 3.19L48.23 3.19Q49.17 3.19 49.80 3.52L49.80 3.52L49.80 3.52Q50.43 3.85 50.81 4.38L50.81 4.38L50.81 4.38Q51.18 4.90 51.34 5.54L51.34 5.54L51.34 5.54Q51.49 6.17 51.49 6.78L51.49 6.78L51.49 7.22L46.38 7.22L46.38 7.22Q46.44 7.90 46.69 8.41L46.69 8.41L46.69 8.41Q46.80 8.64 46.97 8.86L46.97 8.86L46.97 8.86Q47.14 9.07 47.38 9.24L47.38 9.24L47.38 9.24Q47.63 9.41 47.95 9.51L47.95 9.51L47.95 9.51Q48.27 9.60 48.69 9.60L48.69 9.60L48.69 9.60Q49.14 9.60 49.54 9.50L49.54 9.50L49.54 9.50Q49.94 9.39 50.25 9.27L50.25 9.27L50.25 9.27Q50.61 9.11 50.92 8.92L50.92 8.92L50.93 10.12L50.93 10.12Q50.93 10.12 50.77 10.21L50.77 10.21L50.77 10.21Q50.61 10.30 50.33 10.40L50.33 10.40L50.33 10.40Q50.05 10.50 49.66 10.58L49.66 10.58L49.66 10.58Q49.28 10.67 48.83 10.67ZM46.38 6.24L50.09 6.24L50.09 6.24Q50.09 5.89 49.99 5.54L49.99 5.54L49.99 5.54Q49.88 5.18 49.66 4.89L49.66 4.89L49.66 4.89Q49.43 4.61 49.08 4.43L49.08 4.43L49.08 4.43Q48.73 4.26 48.23 4.26L48.23 4.26L48.23 4.26Q47.80 4.26 47.45 4.43L47.45 4.43L47.45 4.43Q47.11 4.61 46.87 4.89L46.87 4.89L46.87 4.89Q46.63 5.18 46.51 5.54L46.51 5.54L46.51 5.54Q46.38 5.89 46.38 6.24L46.38 6.24ZM52.25 10.50L55.87 5.75L52.57 1.34L54.26 1.34L56.62 4.93L58.79 1.34L60.47 1.34L57.36 5.75L57.36 5.75Q57.36 5.77 57.51 5.98L57.51 5.98L57.51 5.98Q57.65 6.19 57.89 6.52L57.89 6.52L57.89 6.52Q58.13 6.86 58.44 7.29L58.44 7.29L58.44 7.29Q58.74 7.71 59.07 8.15L59.07 8.15L59.07 8.15Q59.82 9.18 60.79 10.50L60.79 10.50L59.08 10.50L56.62 6.80L53.96 10.50L52.25 10.50ZM65.77 10.67L65.77 10.67L65.77 10.67Q65.07 10.67 64.42 10.41L64.42 10.41L64.42 10.41Q63.77 10.15 63.34 9.58L63.34 9.58L63.34 12.40L62.02 12.40L62.02 3.36L63.13 3.36L63.34 4.37L63.34 4.38L63.34 4.38Q63.53 4.05 63.87 3.79L63.87 3.79L63.87 3.79Q64.15 3.57 64.62 3.38L64.62 3.38L64.62 3.38Q65.09 3.19 65.77 3.19L65.77 3.19L65.77 3.19Q66.49 3.19 67.05 3.49L67.05 3.49L67.05 3.49Q67.62 3.79 68.01 4.30L68.01 4.30L68.01 4.30Q68.40 4.80 68.61 5.48L68.61 5.48L68.61 5.48Q68.81 6.16 68.81 6.92L68.81 6.92L68.81 6.92Q68.81 7.67 68.61 8.35L68.61 8.35L68.61 8.35Q68.40 9.03 68.01 9.55L68.01 9.55L68.01 9.55Q67.62 10.07 67.05 10.37L67.05 10.37L67.05 10.37Q66.49 10.67 65.77 10.67ZM65.48 4.26L65.48 4.26L65.48 4.26Q65.06 4.26 64.67 4.42L64.67 4.42L64.67 4.42Q64.29 4.58 63.99 4.91L63.99 4.91L63.99 4.91Q63.70 5.24 63.52 5.74L63.52 5.74L63.52 5.74Q63.34 6.24 63.34 6.92L63.34 6.92L63.34 6.92Q63.34 7.59 63.52 8.09L63.52 8.09L63.52 8.09Q63.70 8.60 63.99 8.93L63.99 8.93L63.99 8.93Q64.29 9.27 64.67 9.44L64.67 9.44L64.67 9.44Q65.06 9.60 65.48 9.60L65.48 9.60L65.48 9.60Q65.87 9.60 66.22 9.44L66.22 9.44L66.22 9.44Q66.57 9.27 66.84 8.93L66.84 8.93L66.84 8.93Q67.10 8.60 67.26 8.09L67.26 8.09L67.26 8.09Q67.41 7.59 67.41 6.92L67.41 6.92L67.41 6.92Q67.41 6.24 67.26 5.74L67.26 5.74L67.26 5.74Q67.10 5.24 66.84 4.91L66.84 4.91L66.84 4.91Q66.57 4.58 66.22 4.42L66.22 4.42L66.22 4.42Q65.87 4.26 65.48 4.26ZM74.56 3.30L74.56 4.47L74.56 4.47Q74.47 4.44 74.35 4.41L74.35 4.41L74.35 4.41Q74.26 4.38 74.14 4.36L74.14 4.36L74.14 4.36Q74.02 4.34 73.91 4.34L73.91 4.34L73.91 4.34Q73.30 4.34 72.91 4.61L72.91 4.61L72.91 4.61Q72.52 4.89 72.30 5.31L72.30 5.31L72.30 5.31Q72.07 5.73 71.98 6.24L71.98 6.24L71.98 6.24Q71.89 6.76 71.89 7.25L71.89 7.25L71.89 10.50L70.57 10.50L70.57 3.36L71.69 3.36L71.85 4.47L71.85 4.47Q72.04 4.12 72.28 3.84L72.28 3.84L72.28 3.84Q72.52 3.57 72.84 3.40L72.84 3.40L72.84 3.40Q73.16 3.23 73.58 3.20L73.58 3.20L73.58 3.20Q74.00 3.16 74.56 3.30L74.56 3.30ZM79.39 10.67L79.39 10.67L79.39 10.67Q78.19 10.67 77.44 10.31L77.44 10.31L77.44 10.31Q76.69 9.95 76.27 9.39L76.27 9.39L76.27 9.39Q75.85 8.83 75.70 8.14L75.70 8.14L75.70 8.14Q75.54 7.45 75.54 6.78L75.54 6.78L75.54 6.78Q75.54 6.10 75.76 5.46L75.76 5.46L75.76 5.46Q75.98 4.82 76.39 4.31L76.39 4.31L76.39 4.31Q76.80 3.81 77.41 3.50L77.41 3.50L77.41 3.50Q78.01 3.19 78.79 3.19L78.79 3.19L78.79 3.19Q79.73 3.19 80.36 3.52L80.36 3.52L80.36 3.52Q80.99 3.85 81.37 4.38L81.37 4.38L81.37 4.38Q81.75 4.90 81.90 5.54L81.90 5.54L81.90 5.54Q82.05 6.17 82.05 6.78L82.05 6.78L82.05 7.22L76.94 7.22L76.94 7.22Q77 7.90 77.25 8.41L77.25 8.41L77.25 8.41Q77.36 8.64 77.53 8.86L77.53 8.86L77.53 8.86Q77.70 9.07 77.95 9.24L77.95 9.24L77.95 9.24Q78.19 9.41 78.51 9.51L78.51 9.51L78.51 9.51Q78.83 9.60 79.25 9.60L79.25 9.60L79.25 9.60Q79.70 9.60 80.10 9.50L80.10 9.50L80.10 9.50Q80.50 9.39 80.81 9.27L80.81 9.27L80.81 9.27Q81.17 9.11 81.48 8.92L81.48 8.92L81.49 10.12L81.49 10.12Q81.49 10.12 81.33 10.21L81.33 10.21L81.33 10.21Q81.17 10.30 80.89 10.40L80.89 10.40L80.89 10.40Q80.61 10.50 80.23 10.58L80.23 10.58L80.23 10.58Q79.84 10.67 79.39 10.67ZM76.94 6.24L80.65 6.24L80.65 6.24Q80.65 5.89 80.55 5.54L80.55 5.54L80.55 5.54Q80.44 5.18 80.22 4.89L80.22 4.89L80.22 4.89Q80.00 4.61 79.65 4.43L79.65 4.43L79.65 4.43Q79.30 4.26 78.79 4.26L78.79 4.26L78.79 4.26Q78.36 4.26 78.02 4.43L78.02 4.43L78.02 4.43Q77.67 4.61 77.43 4.89L77.43 4.89L77.43 4.89Q77.20 5.18 77.07 5.54L77.07 5.54L77.07 5.54Q76.94 5.89 76.94 6.24L76.94 6.24ZM87.99 3.91L87.56 4.89L87.56 4.89Q86.73 4.26 85.82 4.26L85.82 4.26L85.82 4.26Q85.32 4.26 85.02 4.46L85.02 4.46L85.02 4.46Q84.71 4.66 84.71 5.15L84.71 5.15L84.71 5.15Q84.71 5.40 84.83 5.58L84.83 5.58L84.83 5.58Q84.95 5.75 85.15 5.88L85.15 5.88L85.15 5.88Q85.34 6.01 85.60 6.10L85.60 6.10L85.60 6.10Q85.85 6.20 86.13 6.30L86.13 6.30L86.13 6.30Q86.49 6.43 86.87 6.58L86.87 6.58L86.87 6.58Q87.25 6.73 87.55 6.98L87.55 6.98L87.55 6.98Q87.85 7.22 88.04 7.59L88.04 7.59L88.04 7.59Q88.23 7.97 88.23 8.54L88.23 8.54L88.23 8.54Q88.23 9.09 88.03 9.49L88.03 9.49L88.03 9.49Q87.82 9.90 87.48 10.16L87.48 10.16L87.48 10.16Q87.14 10.42 86.70 10.54L86.70 10.54L86.70 10.54Q86.25 10.67 85.79 10.67L85.79 10.67L85.79 10.67Q85.09 10.67 84.42 10.39L84.42 10.39L84.42 10.39Q83.75 10.11 83.27 9.58L83.27 9.58L83.69 8.65L83.69 8.65Q84.14 9.10 84.71 9.35L84.71 9.35L84.71 9.35Q85.27 9.60 85.82 9.60L85.82 9.60L85.82 9.60Q86.35 9.60 86.70 9.39L86.70 9.39L86.70 9.39Q87.04 9.17 87.05 8.67L87.05 8.67L87.05 8.67Q87.05 8.40 86.93 8.20L86.93 8.20L86.93 8.20Q86.81 8.01 86.62 7.86L86.62 7.86L86.62 7.86Q86.42 7.71 86.16 7.61L86.16 7.61L86.16 7.61Q85.89 7.50 85.61 7.39L85.61 7.39L85.61 7.39Q85.25 7.27 84.88 7.11L84.88 7.11L84.88 7.11Q84.52 6.96 84.22 6.72L84.22 6.72L84.22 6.72Q83.93 6.48 83.75 6.12L83.75 6.12L83.75 6.12Q83.57 5.75 83.57 5.22L83.57 5.22L83.57 5.22Q83.57 4.68 83.76 4.29L83.76 4.29L83.76 4.29Q83.94 3.91 84.27 3.66L84.27 3.66L84.27 3.66Q84.59 3.42 85.01 3.30L85.01 3.30L85.01 3.30Q85.43 3.19 85.89 3.19L85.89 3.19L85.89 3.19Q86.46 3.19 87.00 3.38L87.00 3.38L87.00 3.38Q87.54 3.57 87.99 3.91L87.99 3.91ZM94.21 3.91L93.77 4.89L93.77 4.89Q92.95 4.26 92.04 4.26L92.04 4.26L92.04 4.26Q91.53 4.26 91.23 4.46L91.23 4.46L91.23 4.46Q90.93 4.66 90.93 5.15L90.93 5.15L90.93 5.15Q90.93 5.40 91.05 5.58L91.05 5.58L91.05 5.58Q91.17 5.75 91.36 5.88L91.36 5.88L91.36 5.88Q91.56 6.01 91.81 6.10L91.81 6.10L91.81 6.10Q92.06 6.20 92.34 6.30L92.34 6.30L92.34 6.30Q92.71 6.43 93.09 6.58L93.09 6.58L93.09 6.58Q93.46 6.73 93.77 6.98L93.77 6.98L93.77 6.98Q94.07 7.22 94.25 7.59L94.25 7.59L94.25 7.59Q94.44 7.97 94.44 8.54L94.44 8.54L94.44 8.54Q94.44 9.09 94.24 9.49L94.24 9.49L94.24 9.49Q94.04 9.90 93.70 10.16L93.70 10.16L93.70 10.16Q93.35 10.42 92.91 10.54L92.91 10.54L92.91 10.54Q92.47 10.67 92.01 10.67L92.01 10.67L92.01 10.67Q91.31 10.67 90.64 10.39L90.64 10.39L90.64 10.39Q89.96 10.11 89.49 9.58L89.49 9.58L89.91 8.65L89.91 8.65Q90.36 9.10 90.92 9.35L90.92 9.35L90.92 9.35Q91.49 9.60 92.04 9.60L92.04 9.60L92.04 9.60Q92.57 9.60 92.91 9.39L92.91 9.39L92.91 9.39Q93.25 9.17 93.27 8.67L93.27 8.67L93.27 8.67Q93.27 8.40 93.15 8.20L93.15 8.20L93.15 8.20Q93.03 8.01 92.83 7.86L92.83 7.86L92.83 7.86Q92.64 7.71 92.37 7.61L92.37 7.61L92.37 7.61Q92.11 7.50 91.83 7.39L91.83 7.39L91.83 7.39Q91.46 7.27 91.10 7.11L91.10 7.11L91.10 7.11Q90.73 6.96 90.44 6.72L90.44 6.72L90.44 6.72Q90.15 6.48 89.96 6.12L89.96 6.12L89.96 6.12Q89.78 5.75 89.78 5.22L89.78 5.22L89.78 5.22Q89.78 4.68 89.97 4.29L89.97 4.29L89.97 4.29Q90.16 3.91 90.48 3.66L90.48 3.66L90.48 3.66Q90.80 3.42 91.22 3.30L91.22 3.30L91.22 3.30Q91.64 3.19 92.11 3.19L92.11 3.19L92.11 3.19Q92.68 3.19 93.22 3.38L93.22 3.38L93.22 3.38Q93.76 3.57 94.21 3.91L94.21 3.91Z"></path></g><!----><g data-v-423bf9ae="" id="96e2d3ee-88f7-4ba4-9f98-b97a18042485" transform="matrix(1.4062498323619566,0,0,1.4062498323619566,211.5330104157321,0)" stroke="none" fill="white"><path d="M58.973 52.107l4.494-.89-.01-.14-4.596-.464.28-.804-5.008-.467.77-.631-5.183-.056.254-1.16-5.554 1.345.326-1.1-2.702.933-.322-.373 5.883-2.653-1.323-.756 6.202-3.582-1.316-.875 4.555-4.583-1.277.077 4.014-4.82-1.004-.515 3.65-4.455-.122-.141-4.831 3.087-.371-1.079-5.235 3.405.243-1.275-5.075 3.98-.682-1.44-4.315 5.77-.564-1.432-3.366 5.57-.172-.2 1.665-3.896h-1.308l2.539-8.169-1.903.672 1.903-9.287-2.014.559-.525-8.504-1.042 1.342L34.7 6.932l-1.387.56L32.123 0h-.246l-1.19 7.491-1.387-.56-1.23 8.169-1.043-1.343-.525 8.504-2.014-.56 1.903 9.288-1.903-.671 2.539 8.168h-1.308l1.665 3.897-.173.2-3.365-5.57-.564 1.43-4.315-5.768-.682 1.44-5.075-3.98.243 1.274-5.235-3.404-.37 1.079-4.833-3.087-.122.141 3.651 4.455-1.004.516 4.014 4.819-1.277-.077 4.555 4.582-1.316.876 6.202 3.582-1.323.755 5.884 2.653-.323.374-2.702-.934.326 1.1-5.554-1.345.254 1.161-5.182.056.77.63-5.009.468.28.804-4.596.464-.01.14 4.494.89-.398.772 4.903.932-.859.555 5.138.54-.426 1.129 5.716-.817-.488 1.062 5.064-1.21-.056.742 4.245-1.456.133.168-2.554 1.116.535.32-2.715 1.508.53.37-2.05 1.932.54-.032-1.83 2.032.408.218-1.665 1.879.047.06 2.124-1.3.125.455 2.303-1.434-.14.538 2.252-1.677.246.608 1.983-2.432.196.604 1.578-2.35.252.318 1.567-2.872-.13 4.683c-.025 1.033-.265 2.65-.265 3.387 0 .853.297 1.545.664 1.545s.664-.692.664-1.545c0-.737-.245-2.366-.273-3.381l-.128-4.727 1.573 2.91.251-.317 1.578 2.35.196-.605 1.983 2.433.246-.608 2.252 1.677-.14-.538 2.303 1.434.125-.456 2.124 1.3.048-.06-1.666-1.878.408-.218-1.829-2.032.54.032-2.05-1.932.529-.37-2.714-1.509.536-.32-2.554-1.117.133-.168 4.244 1.457-.056-.744 5.065 1.211-.489-1.062 5.717.817-.426-1.129 5.137-.54-.859-.554 4.904-.932zM18.795 40.48c-2.589-2.382-5.175-4.75-7.735-7.206a52.329 52.329 0 0 1 8.444 6.433c1.293 1.21 2.57 2.437 3.766 3.743a48.94 48.94 0 0 1 3.422 4.067 120.606 120.606 0 0 1-3.997-3.483zm3.744 11.953c-1.486.07-2.974.055-4.459-.001-1.484-.073-2.966-.172-4.441-.355a43.547 43.547 0 0 1-4.4-.711c1.488.019 2.966.083 4.444.138l4.428.179 4.425.173 4.44.127a35.127 35.127 0 0 1-4.437.45zm4.368 5.23a20.816 20.816 0 0 1-2.79 1.923 20.825 20.825 0 0 1 2.477-2.312 20.556 20.556 0 0 1 2.79-1.921 20.56 20.56 0 0 1-2.477 2.31zM32 44.655c-.415-5.056-.51-10.113-.525-15.169.017-5.056.112-10.113.525-15.17.413 5.057.508 10.114.525 15.17-.015 5.056-.11 10.113-.525 15.17zm5.406 12.62a20.83 20.83 0 0 1 2.477 2.312 20.82 20.82 0 0 1-2.79-1.922 20.56 20.56 0 0 1-2.478-2.311 20.556 20.556 0 0 1 2.79 1.921zM40.73 43.45c1.196-1.306 2.474-2.533 3.766-3.743a52.329 52.329 0 0 1 8.444-6.433c-2.56 2.456-5.147 4.824-7.735 7.207l-3.9 3.553a120.192 120.192 0 0 1-3.996 3.483 48.94 48.94 0 0 1 3.421-4.067zm9.631 8.627c-1.475.183-2.957.282-4.441.355-1.485.056-2.973.07-4.46.001a35.128 35.128 0 0 1-4.437-.45l4.44-.126 4.425-.174 4.428-.178c1.478-.056 2.957-.12 4.445-.139a43.55 43.55 0 0 1-4.4.711z"></path></g><!----></svg>